<mxfile host="app.diagrams.net" modified="2024-07-19T19:01:39.768Z" agent="Mozilla/5.0 (Windows NT 10.0; Win64; x64) AppleWebKit/537.36 (KHTML, like Gecko) Chrome/126.0.0.0 Safari/537.36" etag="UeqshqcKapL4GF-Qkb34" version="24.6.4" type="google" pages="2">
  <diagram name="Version buena" id="DUQvQRZWUSydachXMemF">
    <mxGraphModel grid="1" page="1" gridSize="10" guides="1" tooltips="1" connect="1" arrows="1" fold="1" pageScale="1" pageWidth="827" pageHeight="1169" math="0" shadow="0">
      <root>
        <mxCell id="0" />
        <mxCell id="1" parent="0" />
        <mxCell id="0Md5jdG99tqC08UaVLkT-1" value="CONCESIONARIO" style="rounded=0;whiteSpace=wrap;html=1;" vertex="1" parent="1">
          <mxGeometry x="-750" y="905" width="120" height="60" as="geometry" />
        </mxCell>
        <mxCell id="0Md5jdG99tqC08UaVLkT-2" value="id_concesionario &lt;b&gt;PK&lt;/b&gt;" style="ellipse;whiteSpace=wrap;html=1;" vertex="1" parent="1">
          <mxGeometry x="-752.5" y="875" width="120" height="30" as="geometry" />
        </mxCell>
        <mxCell id="0Md5jdG99tqC08UaVLkT-3" value="nombre" style="ellipse;whiteSpace=wrap;html=1;" vertex="1" parent="1">
          <mxGeometry x="-752.5" y="855" width="60" height="20" as="geometry" />
        </mxCell>
        <mxCell id="0Md5jdG99tqC08UaVLkT-4" value="direccion" style="ellipse;whiteSpace=wrap;html=1;" vertex="1" parent="1">
          <mxGeometry x="-692.5" y="855" width="60" height="20" as="geometry" />
        </mxCell>
        <mxCell id="0Md5jdG99tqC08UaVLkT-5" value="VEHICULO" style="rounded=0;whiteSpace=wrap;html=1;" vertex="1" parent="1">
          <mxGeometry x="-475" y="905" width="120" height="60" as="geometry" />
        </mxCell>
        <mxCell id="0Md5jdG99tqC08UaVLkT-6" value="id_vehiculo &lt;b&gt;PK&lt;/b&gt;" style="ellipse;whiteSpace=wrap;html=1;" vertex="1" parent="1">
          <mxGeometry x="-470" y="875" width="110" height="30" as="geometry" />
        </mxCell>
        <mxCell id="0Md5jdG99tqC08UaVLkT-7" value="marca" style="ellipse;whiteSpace=wrap;html=1;" vertex="1" parent="1">
          <mxGeometry x="-480" y="825" width="60" height="20" as="geometry" />
        </mxCell>
        <mxCell id="0Md5jdG99tqC08UaVLkT-8" value="modelo" style="ellipse;whiteSpace=wrap;html=1;" vertex="1" parent="1">
          <mxGeometry x="-415" y="825" width="60" height="20" as="geometry" />
        </mxCell>
        <mxCell id="0Md5jdG99tqC08UaVLkT-9" value="aÃ±o" style="ellipse;whiteSpace=wrap;html=1;" vertex="1" parent="1">
          <mxGeometry x="-460" y="805" width="40" height="20" as="geometry" />
        </mxCell>
        <mxCell id="0Md5jdG99tqC08UaVLkT-10" value="id_concesionario &lt;b&gt;FK&lt;/b&gt;" style="ellipse;whiteSpace=wrap;html=1;" vertex="1" parent="1">
          <mxGeometry x="-480" y="845" width="120" height="30" as="geometry" />
        </mxCell>
        <mxCell id="0Md5jdG99tqC08UaVLkT-11" value="INSUMO" style="rounded=0;whiteSpace=wrap;html=1;" vertex="1" parent="1">
          <mxGeometry x="-1077.4999999999998" y="410" width="120" height="60" as="geometry" />
        </mxCell>
        <mxCell id="0Md5jdG99tqC08UaVLkT-12" value="id_insumo&amp;nbsp;&lt;b&gt;PK&lt;/b&gt;" style="ellipse;whiteSpace=wrap;html=1;" vertex="1" parent="1">
          <mxGeometry x="-1077.4999999999998" y="380" width="110" height="30" as="geometry" />
        </mxCell>
        <mxCell id="0Md5jdG99tqC08UaVLkT-13" value="nombre" style="ellipse;whiteSpace=wrap;html=1;" vertex="1" parent="1">
          <mxGeometry x="-1077.4999999999998" y="360" width="60" height="20" as="geometry" />
        </mxCell>
        <mxCell id="0Md5jdG99tqC08UaVLkT-14" value="descripcion" style="ellipse;whiteSpace=wrap;html=1;" vertex="1" parent="1">
          <mxGeometry x="-1017.5" y="360" width="70" height="20" as="geometry" />
        </mxCell>
        <mxCell id="0Md5jdG99tqC08UaVLkT-15" value="precio" style="ellipse;whiteSpace=wrap;html=1;" vertex="1" parent="1">
          <mxGeometry x="-1087.4999999999998" y="340" width="60" height="20" as="geometry" />
        </mxCell>
        <mxCell id="0Md5jdG99tqC08UaVLkT-16" value="id_almacen &lt;b&gt;FK&lt;/b&gt;" style="ellipse;whiteSpace=wrap;html=1;" vertex="1" parent="1">
          <mxGeometry x="-1027.5" y="330" width="90" height="30" as="geometry" />
        </mxCell>
        <mxCell id="0Md5jdG99tqC08UaVLkT-17" value="precio" style="ellipse;whiteSpace=wrap;html=1;" vertex="1" parent="1">
          <mxGeometry x="-420" y="805" width="60" height="20" as="geometry" />
        </mxCell>
        <mxCell id="0Md5jdG99tqC08UaVLkT-19" value="ALMACEN" style="rounded=0;whiteSpace=wrap;html=1;" vertex="1" parent="1">
          <mxGeometry x="-1077.1399999999999" y="150" width="120" height="60" as="geometry" />
        </mxCell>
        <mxCell id="0Md5jdG99tqC08UaVLkT-20" value="id_almacen &lt;b&gt;PK&lt;/b&gt;" style="ellipse;whiteSpace=wrap;html=1;" vertex="1" parent="1">
          <mxGeometry x="-1077.1399999999999" y="120" width="120" height="30" as="geometry" />
        </mxCell>
        <mxCell id="0Md5jdG99tqC08UaVLkT-21" value="nombre" style="ellipse;whiteSpace=wrap;html=1;" vertex="1" parent="1">
          <mxGeometry x="-1087.1399999999999" y="100" width="60" height="20" as="geometry" />
        </mxCell>
        <mxCell id="0Md5jdG99tqC08UaVLkT-22" value="ubicacion" style="ellipse;whiteSpace=wrap;html=1;" vertex="1" parent="1">
          <mxGeometry x="-1027.1399999999999" y="100" width="70" height="20" as="geometry" />
        </mxCell>
        <mxCell id="0Md5jdG99tqC08UaVLkT-23" value="id_empleado &lt;b&gt;PK&lt;/b&gt;" style="ellipse;whiteSpace=wrap;html=1;" vertex="1" parent="1">
          <mxGeometry x="-754.64" y="615" width="115" height="30" as="geometry" />
        </mxCell>
        <mxCell id="0Md5jdG99tqC08UaVLkT-24" value="EMPLEADO" style="rounded=0;whiteSpace=wrap;html=1;" vertex="1" parent="1">
          <mxGeometry x="-752.14" y="645" width="120" height="60" as="geometry" />
        </mxCell>
        <mxCell id="0Md5jdG99tqC08UaVLkT-25" value="nombre" style="ellipse;whiteSpace=wrap;html=1;" vertex="1" parent="1">
          <mxGeometry x="-759.64" y="565" width="60" height="20" as="geometry" />
        </mxCell>
        <mxCell id="0Md5jdG99tqC08UaVLkT-26" value="cargo" style="ellipse;whiteSpace=wrap;html=1;" vertex="1" parent="1">
          <mxGeometry x="-699.64" y="565" width="60" height="20" as="geometry" />
        </mxCell>
        <mxCell id="0Md5jdG99tqC08UaVLkT-27" value="salario" style="ellipse;whiteSpace=wrap;html=1;" vertex="1" parent="1">
          <mxGeometry x="-727.14" y="545" width="50" height="20" as="geometry" />
        </mxCell>
        <mxCell id="0Md5jdG99tqC08UaVLkT-28" value="id_concesionario &lt;b&gt;FK&lt;/b&gt;" style="ellipse;whiteSpace=wrap;html=1;" vertex="1" parent="1">
          <mxGeometry x="-759.64" y="585" width="120" height="30" as="geometry" />
        </mxCell>
        <mxCell id="0Md5jdG99tqC08UaVLkT-29" value="CLIENTE" style="rounded=0;whiteSpace=wrap;html=1;" vertex="1" parent="1">
          <mxGeometry x="-1072.5" y="905" width="120" height="60" as="geometry" />
        </mxCell>
        <mxCell id="0Md5jdG99tqC08UaVLkT-30" value="id_cliente &lt;b&gt;PK&lt;/b&gt;" style="ellipse;whiteSpace=wrap;html=1;" vertex="1" parent="1">
          <mxGeometry x="-1072.5" y="875" width="115" height="30" as="geometry" />
        </mxCell>
        <mxCell id="0Md5jdG99tqC08UaVLkT-31" value="nombre" style="ellipse;whiteSpace=wrap;html=1;" vertex="1" parent="1">
          <mxGeometry x="-1072.5" y="825" width="60" height="20" as="geometry" />
        </mxCell>
        <mxCell id="0Md5jdG99tqC08UaVLkT-32" value="direccion" style="ellipse;whiteSpace=wrap;html=1;" vertex="1" parent="1">
          <mxGeometry x="-1012.5" y="825" width="60" height="20" as="geometry" />
        </mxCell>
        <mxCell id="0Md5jdG99tqC08UaVLkT-33" value="id_concesionario &lt;b&gt;FK&lt;/b&gt;" style="ellipse;whiteSpace=wrap;html=1;" vertex="1" parent="1">
          <mxGeometry x="-1075" y="845" width="120" height="30" as="geometry" />
        </mxCell>
        <mxCell id="0Md5jdG99tqC08UaVLkT-35" value="COMPRA" style="rounded=0;whiteSpace=wrap;html=1;" vertex="1" parent="1">
          <mxGeometry x="-1072.1399999999999" y="645" width="120" height="60" as="geometry" />
        </mxCell>
        <mxCell id="0Md5jdG99tqC08UaVLkT-36" value="id_compra &lt;b&gt;PK&lt;/b&gt;" style="ellipse;whiteSpace=wrap;html=1;" vertex="1" parent="1">
          <mxGeometry x="-1072.1399999999999" y="615" width="120" height="30" as="geometry" />
        </mxCell>
        <mxCell id="0Md5jdG99tqC08UaVLkT-37" value="fecha" style="ellipse;whiteSpace=wrap;html=1;" vertex="1" parent="1">
          <mxGeometry x="-1087.1399999999999" y="570" width="60" height="20" as="geometry" />
        </mxCell>
        <mxCell id="0Md5jdG99tqC08UaVLkT-38" value="id_cliente &lt;b&gt;FK&lt;/b&gt;" style="ellipse;whiteSpace=wrap;html=1;" vertex="1" parent="1">
          <mxGeometry x="-1012.14" y="590" width="90" height="25" as="geometry" />
        </mxCell>
        <mxCell id="0Md5jdG99tqC08UaVLkT-39" value="id_empleado&amp;nbsp;&lt;b&gt;FK&lt;/b&gt;" style="ellipse;whiteSpace=wrap;html=1;" vertex="1" parent="1">
          <mxGeometry x="-1112.14" y="590" width="100" height="25" as="geometry" />
        </mxCell>
        <mxCell id="0Md5jdG99tqC08UaVLkT-40" value="precio_total" style="ellipse;whiteSpace=wrap;html=1;" vertex="1" parent="1">
          <mxGeometry x="-1027.1399999999999" y="570" width="90" height="20" as="geometry" />
        </mxCell>
        <mxCell id="0Md5jdG99tqC08UaVLkT-41" value="DETALLE_VENTA" style="rounded=0;whiteSpace=wrap;html=1;" vertex="1" parent="1">
          <mxGeometry x="-1395" y="645" width="120" height="60" as="geometry" />
        </mxCell>
        <mxCell id="0Md5jdG99tqC08UaVLkT-42" value="id_detalleventa &lt;b&gt;PK&lt;/b&gt;" style="ellipse;whiteSpace=wrap;html=1;" vertex="1" parent="1">
          <mxGeometry x="-1400" y="615" width="120" height="30" as="geometry" />
        </mxCell>
        <mxCell id="0Md5jdG99tqC08UaVLkT-43" value="id_compra &lt;b&gt;FK&lt;/b&gt;" style="ellipse;whiteSpace=wrap;html=1;" vertex="1" parent="1">
          <mxGeometry x="-1420" y="590" width="100" height="25" as="geometry" />
        </mxCell>
        <mxCell id="0Md5jdG99tqC08UaVLkT-44" value="id_producto&amp;nbsp;&lt;b&gt;FK&lt;/b&gt;" style="ellipse;whiteSpace=wrap;html=1;" vertex="1" parent="1">
          <mxGeometry x="-1320" y="590" width="100" height="25" as="geometry" />
        </mxCell>
        <mxCell id="0Md5jdG99tqC08UaVLkT-48" value="cantidad" style="ellipse;whiteSpace=wrap;html=1;" vertex="1" parent="1">
          <mxGeometry x="-1320" y="560" width="100" height="25" as="geometry" />
        </mxCell>
        <mxCell id="0Md5jdG99tqC08UaVLkT-49" value="precio_unitario" style="ellipse;whiteSpace=wrap;html=1;" vertex="1" parent="1">
          <mxGeometry x="-1390" y="540" width="100" height="25" as="geometry" />
        </mxCell>
        <mxCell id="0Md5jdG99tqC08UaVLkT-50" value="precio_total" style="ellipse;whiteSpace=wrap;html=1;" vertex="1" parent="1">
          <mxGeometry x="-1420" y="565" width="100" height="25" as="geometry" />
        </mxCell>
        <mxCell id="0Md5jdG99tqC08UaVLkT-51" value="" style="endArrow=none;html=1;rounded=0;exitX=1;exitY=0.5;exitDx=0;exitDy=0;entryX=0;entryY=0.5;entryDx=0;entryDy=0;" edge="1" parent="1">
          <mxGeometry width="50" height="50" relative="1" as="geometry">
            <mxPoint x="-630" y="950" as="sourcePoint" />
            <mxPoint x="-475" y="950" as="targetPoint" />
          </mxGeometry>
        </mxCell>
        <mxCell id="0Md5jdG99tqC08UaVLkT-52" value="&lt;b&gt;1&lt;/b&gt;" style="edgeLabel;html=1;align=center;verticalAlign=middle;resizable=0;points=[];" connectable="0" vertex="1" parent="0Md5jdG99tqC08UaVLkT-51">
          <mxGeometry x="-0.7677" relative="1" as="geometry">
            <mxPoint as="offset" />
          </mxGeometry>
        </mxCell>
        <mxCell id="0Md5jdG99tqC08UaVLkT-53" value="&lt;b&gt;N&lt;/b&gt;" style="edgeLabel;html=1;align=center;verticalAlign=middle;resizable=0;points=[];" connectable="0" vertex="1" parent="0Md5jdG99tqC08UaVLkT-51">
          <mxGeometry x="0.7645" y="-1" relative="1" as="geometry">
            <mxPoint x="1" as="offset" />
          </mxGeometry>
        </mxCell>
        <mxCell id="0Md5jdG99tqC08UaVLkT-54" value="" style="endArrow=none;html=1;rounded=0;exitX=1;exitY=0.25;exitDx=0;exitDy=0;entryX=1;entryY=0.5;entryDx=0;entryDy=0;" edge="1" parent="1" source="0Md5jdG99tqC08UaVLkT-1" target="0Md5jdG99tqC08UaVLkT-24">
          <mxGeometry width="50" height="50" relative="1" as="geometry">
            <mxPoint x="-590" y="905" as="sourcePoint" />
            <mxPoint x="-540" y="855" as="targetPoint" />
            <Array as="points">
              <mxPoint x="-600" y="920" />
              <mxPoint x="-600" y="675" />
            </Array>
          </mxGeometry>
        </mxCell>
        <mxCell id="0Md5jdG99tqC08UaVLkT-55" value="&lt;b&gt;1&lt;/b&gt;" style="edgeLabel;html=1;align=center;verticalAlign=middle;resizable=0;points=[];" connectable="0" vertex="1" parent="0Md5jdG99tqC08UaVLkT-54">
          <mxGeometry x="-0.8457" relative="1" as="geometry">
            <mxPoint x="6" y="-10" as="offset" />
          </mxGeometry>
        </mxCell>
        <mxCell id="0Md5jdG99tqC08UaVLkT-56" value="&lt;b&gt;N&lt;/b&gt;" style="edgeLabel;html=1;align=center;verticalAlign=middle;resizable=0;points=[];" connectable="0" vertex="1" parent="0Md5jdG99tqC08UaVLkT-54">
          <mxGeometry x="0.8838" y="2" relative="1" as="geometry">
            <mxPoint as="offset" />
          </mxGeometry>
        </mxCell>
        <mxCell id="0Md5jdG99tqC08UaVLkT-57" value="" style="endArrow=none;html=1;rounded=0;entryX=0;entryY=0.75;entryDx=0;entryDy=0;exitX=1;exitY=0.75;exitDx=0;exitDy=0;" edge="1" parent="1" source="0Md5jdG99tqC08UaVLkT-29" target="0Md5jdG99tqC08UaVLkT-1">
          <mxGeometry width="50" height="50" relative="1" as="geometry">
            <mxPoint x="-860" y="955" as="sourcePoint" />
            <mxPoint x="-810" y="905" as="targetPoint" />
          </mxGeometry>
        </mxCell>
        <mxCell id="0Md5jdG99tqC08UaVLkT-58" value="&lt;b&gt;N&lt;/b&gt;" style="edgeLabel;html=1;align=center;verticalAlign=middle;resizable=0;points=[];" connectable="0" vertex="1" parent="0Md5jdG99tqC08UaVLkT-57">
          <mxGeometry x="-0.7299" y="-3" relative="1" as="geometry">
            <mxPoint as="offset" />
          </mxGeometry>
        </mxCell>
        <mxCell id="0Md5jdG99tqC08UaVLkT-59" value="1" style="edgeLabel;html=1;align=center;verticalAlign=middle;resizable=0;points=[];fontStyle=1" connectable="0" vertex="1" parent="0Md5jdG99tqC08UaVLkT-57">
          <mxGeometry x="0.6548" relative="1" as="geometry">
            <mxPoint as="offset" />
          </mxGeometry>
        </mxCell>
        <mxCell id="0Md5jdG99tqC08UaVLkT-60" value="" style="endArrow=none;html=1;rounded=0;exitX=1;exitY=0.25;exitDx=0;exitDy=0;entryX=0.5;entryY=1;entryDx=0;entryDy=0;" edge="1" parent="1" source="0Md5jdG99tqC08UaVLkT-29" target="0Md5jdG99tqC08UaVLkT-35">
          <mxGeometry width="50" height="50" relative="1" as="geometry">
            <mxPoint x="-930" y="1015" as="sourcePoint" />
            <mxPoint x="-880" y="965" as="targetPoint" />
            <Array as="points">
              <mxPoint x="-930" y="920" />
              <mxPoint x="-930" y="730" />
              <mxPoint x="-1012" y="730" />
            </Array>
          </mxGeometry>
        </mxCell>
        <mxCell id="0Md5jdG99tqC08UaVLkT-61" value="&lt;b&gt;1&lt;/b&gt;" style="edgeLabel;html=1;align=center;verticalAlign=middle;resizable=0;points=[];" connectable="0" vertex="1" parent="0Md5jdG99tqC08UaVLkT-60">
          <mxGeometry x="-0.8782" y="1" relative="1" as="geometry">
            <mxPoint x="3" y="-9" as="offset" />
          </mxGeometry>
        </mxCell>
        <mxCell id="0Md5jdG99tqC08UaVLkT-62" value="&lt;b&gt;N&lt;/b&gt;" style="edgeLabel;html=1;align=center;verticalAlign=middle;resizable=0;points=[];" connectable="0" vertex="1" parent="0Md5jdG99tqC08UaVLkT-60">
          <mxGeometry x="0.8544" y="1" relative="1" as="geometry">
            <mxPoint x="3" y="-9" as="offset" />
          </mxGeometry>
        </mxCell>
        <mxCell id="0Md5jdG99tqC08UaVLkT-65" value="" style="endArrow=none;html=1;rounded=0;entryX=0;entryY=0.5;entryDx=0;entryDy=0;exitX=1;exitY=0.5;exitDx=0;exitDy=0;" edge="1" parent="1" source="0Md5jdG99tqC08UaVLkT-35" target="0Md5jdG99tqC08UaVLkT-24">
          <mxGeometry width="50" height="50" relative="1" as="geometry">
            <mxPoint x="-880" y="705" as="sourcePoint" />
            <mxPoint x="-830" y="655" as="targetPoint" />
          </mxGeometry>
        </mxCell>
        <mxCell id="0Md5jdG99tqC08UaVLkT-66" value="&lt;b&gt;1&lt;/b&gt;" style="edgeLabel;html=1;align=center;verticalAlign=middle;resizable=0;points=[];" connectable="0" vertex="1" parent="0Md5jdG99tqC08UaVLkT-65">
          <mxGeometry x="0.7914" relative="1" as="geometry">
            <mxPoint as="offset" />
          </mxGeometry>
        </mxCell>
        <mxCell id="0Md5jdG99tqC08UaVLkT-67" value="&lt;b&gt;N&lt;/b&gt;" style="edgeLabel;html=1;align=center;verticalAlign=middle;resizable=0;points=[];" connectable="0" vertex="1" parent="0Md5jdG99tqC08UaVLkT-65">
          <mxGeometry x="-0.9038" y="1" relative="1" as="geometry">
            <mxPoint as="offset" />
          </mxGeometry>
        </mxCell>
        <mxCell id="0Md5jdG99tqC08UaVLkT-68" value="" style="endArrow=none;html=1;rounded=0;entryX=0;entryY=0.5;entryDx=0;entryDy=0;exitX=1;exitY=0.5;exitDx=0;exitDy=0;" edge="1" parent="1" source="0Md5jdG99tqC08UaVLkT-41" target="0Md5jdG99tqC08UaVLkT-35">
          <mxGeometry width="50" height="50" relative="1" as="geometry">
            <mxPoint x="-1220" y="785" as="sourcePoint" />
            <mxPoint x="-1170" y="735" as="targetPoint" />
          </mxGeometry>
        </mxCell>
        <mxCell id="0Md5jdG99tqC08UaVLkT-69" value="1" style="edgeLabel;html=1;align=center;verticalAlign=middle;resizable=0;points=[];fontStyle=1" connectable="0" vertex="1" parent="0Md5jdG99tqC08UaVLkT-68">
          <mxGeometry x="0.8141" y="1" relative="1" as="geometry">
            <mxPoint as="offset" />
          </mxGeometry>
        </mxCell>
        <mxCell id="0Md5jdG99tqC08UaVLkT-70" value="&lt;b&gt;N&lt;/b&gt;" style="edgeLabel;html=1;align=center;verticalAlign=middle;resizable=0;points=[];" connectable="0" vertex="1" parent="0Md5jdG99tqC08UaVLkT-68">
          <mxGeometry x="-0.8718" y="-1" relative="1" as="geometry">
            <mxPoint as="offset" />
          </mxGeometry>
        </mxCell>
        <mxCell id="0Md5jdG99tqC08UaVLkT-77" value="" style="endArrow=none;html=1;rounded=0;entryX=0.999;entryY=0.581;entryDx=0;entryDy=0;entryPerimeter=0;" edge="1" parent="1" target="0Md5jdG99tqC08UaVLkT-19">
          <mxGeometry width="50" height="50" relative="1" as="geometry">
            <mxPoint x="-957" y="430" as="sourcePoint" />
            <mxPoint x="-950" y="185" as="targetPoint" />
            <Array as="points">
              <mxPoint x="-930" y="430" />
              <mxPoint x="-930" y="185" />
            </Array>
          </mxGeometry>
        </mxCell>
        <mxCell id="0Md5jdG99tqC08UaVLkT-80" value="&lt;b&gt;N&lt;/b&gt;" style="edgeLabel;html=1;align=center;verticalAlign=middle;resizable=0;points=[];" connectable="0" vertex="1" parent="0Md5jdG99tqC08UaVLkT-77">
          <mxGeometry x="-0.6226" relative="1" as="geometry">
            <mxPoint as="offset" />
          </mxGeometry>
        </mxCell>
        <mxCell id="0Md5jdG99tqC08UaVLkT-82" value="&lt;b&gt;1&lt;/b&gt;" style="edgeLabel;html=1;align=center;verticalAlign=middle;resizable=0;points=[];" connectable="0" vertex="1" parent="0Md5jdG99tqC08UaVLkT-77">
          <mxGeometry x="0.9116" y="1" relative="1" as="geometry">
            <mxPoint as="offset" />
          </mxGeometry>
        </mxCell>
        <mxCell id="0Md5jdG99tqC08UaVLkT-78" value="" style="endArrow=none;html=1;rounded=0;exitX=1;exitY=0;exitDx=0;exitDy=0;entryX=1;entryY=0.5;entryDx=0;entryDy=0;" edge="1" parent="1" source="0Md5jdG99tqC08UaVLkT-35" target="0Md5jdG99tqC08UaVLkT-11">
          <mxGeometry width="50" height="50" relative="1" as="geometry">
            <mxPoint x="-877" y="645" as="sourcePoint" />
            <mxPoint x="-950" y="440" as="targetPoint" />
            <Array as="points">
              <mxPoint x="-910" y="645" />
              <mxPoint x="-910" y="440" />
            </Array>
          </mxGeometry>
        </mxCell>
      </root>
    </mxGraphModel>
  </diagram>
  <diagram name="Version mala" id="n0EQGXJz8zgErXO1YUZq">
    <mxGraphModel grid="1" page="1" gridSize="10" guides="1" tooltips="1" connect="1" arrows="1" fold="1" pageScale="1" pageWidth="827" pageHeight="1169" math="0" shadow="0">
      <root>
        <mxCell id="ZHtV6s1wQadkgrF-00Dp-0" />
        <mxCell id="ZHtV6s1wQadkgrF-00Dp-1" parent="ZHtV6s1wQadkgrF-00Dp-0" />
        <mxCell id="ZHtV6s1wQadkgrF-00Dp-2" value="CONCESIONARIO" style="rounded=0;whiteSpace=wrap;html=1;" parent="ZHtV6s1wQadkgrF-00Dp-1" vertex="1">
          <mxGeometry x="-634.5" y="320" width="120" height="60" as="geometry" />
        </mxCell>
        <mxCell id="ZHtV6s1wQadkgrF-00Dp-3" value="id_concesionario &lt;b&gt;PK&lt;/b&gt;" style="ellipse;whiteSpace=wrap;html=1;" parent="ZHtV6s1wQadkgrF-00Dp-1" vertex="1">
          <mxGeometry x="-637" y="290" width="120" height="30" as="geometry" />
        </mxCell>
        <mxCell id="ZHtV6s1wQadkgrF-00Dp-4" value="nombre" style="ellipse;whiteSpace=wrap;html=1;" parent="ZHtV6s1wQadkgrF-00Dp-1" vertex="1">
          <mxGeometry x="-637" y="270" width="60" height="20" as="geometry" />
        </mxCell>
        <mxCell id="ZHtV6s1wQadkgrF-00Dp-5" value="direccion" style="ellipse;whiteSpace=wrap;html=1;" parent="ZHtV6s1wQadkgrF-00Dp-1" vertex="1">
          <mxGeometry x="-577" y="270" width="60" height="20" as="geometry" />
        </mxCell>
        <mxCell id="ZHtV6s1wQadkgrF-00Dp-6" value="VEHICULO" style="rounded=0;whiteSpace=wrap;html=1;" parent="ZHtV6s1wQadkgrF-00Dp-1" vertex="1">
          <mxGeometry x="-120.00000000000001" y="320" width="120" height="60" as="geometry" />
        </mxCell>
        <mxCell id="ZHtV6s1wQadkgrF-00Dp-7" value="id_vehiculo &lt;b&gt;PK&lt;/b&gt;" style="ellipse;whiteSpace=wrap;html=1;" parent="ZHtV6s1wQadkgrF-00Dp-1" vertex="1">
          <mxGeometry x="-115.00000000000001" y="290" width="110" height="30" as="geometry" />
        </mxCell>
        <mxCell id="ZHtV6s1wQadkgrF-00Dp-8" value="marca" style="ellipse;whiteSpace=wrap;html=1;" parent="ZHtV6s1wQadkgrF-00Dp-1" vertex="1">
          <mxGeometry x="-125.00000000000001" y="240" width="60" height="20" as="geometry" />
        </mxCell>
        <mxCell id="ZHtV6s1wQadkgrF-00Dp-9" value="modelo" style="ellipse;whiteSpace=wrap;html=1;" parent="ZHtV6s1wQadkgrF-00Dp-1" vertex="1">
          <mxGeometry x="-60" y="240" width="60" height="20" as="geometry" />
        </mxCell>
        <mxCell id="ZHtV6s1wQadkgrF-00Dp-10" value="aÃ±o" style="ellipse;whiteSpace=wrap;html=1;" parent="ZHtV6s1wQadkgrF-00Dp-1" vertex="1">
          <mxGeometry x="-105.00000000000001" y="220" width="40" height="20" as="geometry" />
        </mxCell>
        <mxCell id="ZHtV6s1wQadkgrF-00Dp-11" value="id_concesionario &lt;b&gt;FK&lt;/b&gt;" style="ellipse;whiteSpace=wrap;html=1;" parent="ZHtV6s1wQadkgrF-00Dp-1" vertex="1">
          <mxGeometry x="-125.00000000000001" y="260" width="120" height="30" as="geometry" />
        </mxCell>
        <mxCell id="ZHtV6s1wQadkgrF-00Dp-12" value="INSUMO" style="rounded=0;whiteSpace=wrap;html=1;" parent="ZHtV6s1wQadkgrF-00Dp-1" vertex="1">
          <mxGeometry x="-357.3599999999998" y="80" width="120" height="60" as="geometry" />
        </mxCell>
        <mxCell id="ZHtV6s1wQadkgrF-00Dp-13" value="id_insumo&amp;nbsp;&lt;b&gt;PK&lt;/b&gt;" style="ellipse;whiteSpace=wrap;html=1;" parent="ZHtV6s1wQadkgrF-00Dp-1" vertex="1">
          <mxGeometry x="-357.3599999999998" y="50" width="110" height="30" as="geometry" />
        </mxCell>
        <mxCell id="ZHtV6s1wQadkgrF-00Dp-14" value="nombre" style="ellipse;whiteSpace=wrap;html=1;" parent="ZHtV6s1wQadkgrF-00Dp-1" vertex="1">
          <mxGeometry x="-357.3599999999998" y="30" width="60" height="20" as="geometry" />
        </mxCell>
        <mxCell id="ZHtV6s1wQadkgrF-00Dp-15" value="descripcion" style="ellipse;whiteSpace=wrap;html=1;" parent="ZHtV6s1wQadkgrF-00Dp-1" vertex="1">
          <mxGeometry x="-297.36" y="30" width="70" height="20" as="geometry" />
        </mxCell>
        <mxCell id="ZHtV6s1wQadkgrF-00Dp-16" value="precio" style="ellipse;whiteSpace=wrap;html=1;" parent="ZHtV6s1wQadkgrF-00Dp-1" vertex="1">
          <mxGeometry x="-367.3599999999998" y="10" width="60" height="20" as="geometry" />
        </mxCell>
        <mxCell id="ZHtV6s1wQadkgrF-00Dp-17" value="id_almacen &lt;b&gt;FK&lt;/b&gt;" style="ellipse;whiteSpace=wrap;html=1;" parent="ZHtV6s1wQadkgrF-00Dp-1" vertex="1">
          <mxGeometry x="-307.36" width="90" height="30" as="geometry" />
        </mxCell>
        <mxCell id="ZHtV6s1wQadkgrF-00Dp-18" value="precio" style="ellipse;whiteSpace=wrap;html=1;" parent="ZHtV6s1wQadkgrF-00Dp-1" vertex="1">
          <mxGeometry x="-65" y="220" width="60" height="20" as="geometry" />
        </mxCell>
        <mxCell id="ZHtV6s1wQadkgrF-00Dp-19" value="ALMACEN" style="rounded=0;whiteSpace=wrap;html=1;" parent="ZHtV6s1wQadkgrF-00Dp-1" vertex="1">
          <mxGeometry x="-357.3599999999999" y="320" width="120" height="60" as="geometry" />
        </mxCell>
        <mxCell id="ZHtV6s1wQadkgrF-00Dp-20" value="id_almacen &lt;b&gt;PK&lt;/b&gt;" style="ellipse;whiteSpace=wrap;html=1;" parent="ZHtV6s1wQadkgrF-00Dp-1" vertex="1">
          <mxGeometry x="-357.3599999999999" y="290" width="120" height="30" as="geometry" />
        </mxCell>
        <mxCell id="ZHtV6s1wQadkgrF-00Dp-21" value="nombre" style="ellipse;whiteSpace=wrap;html=1;" parent="ZHtV6s1wQadkgrF-00Dp-1" vertex="1">
          <mxGeometry x="-367.3599999999999" y="270" width="60" height="20" as="geometry" />
        </mxCell>
        <mxCell id="ZHtV6s1wQadkgrF-00Dp-22" value="ubicacion" style="ellipse;whiteSpace=wrap;html=1;" parent="ZHtV6s1wQadkgrF-00Dp-1" vertex="1">
          <mxGeometry x="-307.3599999999999" y="270" width="70" height="20" as="geometry" />
        </mxCell>
        <mxCell id="ZHtV6s1wQadkgrF-00Dp-23" value="id_empleado &lt;b&gt;PK&lt;/b&gt;" style="ellipse;whiteSpace=wrap;html=1;" parent="ZHtV6s1wQadkgrF-00Dp-1" vertex="1">
          <mxGeometry x="-232.36" y="800" width="115" height="30" as="geometry" />
        </mxCell>
        <mxCell id="ZHtV6s1wQadkgrF-00Dp-24" value="EMPLEADO" style="rounded=0;whiteSpace=wrap;html=1;" parent="ZHtV6s1wQadkgrF-00Dp-1" vertex="1">
          <mxGeometry x="-357.36" y="740" width="120" height="60" as="geometry" />
        </mxCell>
        <mxCell id="ZHtV6s1wQadkgrF-00Dp-25" value="nombre" style="ellipse;whiteSpace=wrap;html=1;" parent="ZHtV6s1wQadkgrF-00Dp-1" vertex="1">
          <mxGeometry x="-237.36" y="750" width="60" height="20" as="geometry" />
        </mxCell>
        <mxCell id="ZHtV6s1wQadkgrF-00Dp-26" value="cargo" style="ellipse;whiteSpace=wrap;html=1;" parent="ZHtV6s1wQadkgrF-00Dp-1" vertex="1">
          <mxGeometry x="-177.36" y="750" width="60" height="20" as="geometry" />
        </mxCell>
        <mxCell id="ZHtV6s1wQadkgrF-00Dp-27" value="salario" style="ellipse;whiteSpace=wrap;html=1;" parent="ZHtV6s1wQadkgrF-00Dp-1" vertex="1">
          <mxGeometry x="-204.86" y="730" width="50" height="20" as="geometry" />
        </mxCell>
        <mxCell id="ZHtV6s1wQadkgrF-00Dp-28" value="id_concesionario &lt;b&gt;FK&lt;/b&gt;" style="ellipse;whiteSpace=wrap;html=1;" parent="ZHtV6s1wQadkgrF-00Dp-1" vertex="1">
          <mxGeometry x="-237.36" y="770" width="120" height="30" as="geometry" />
        </mxCell>
        <mxCell id="ZHtV6s1wQadkgrF-00Dp-29" value="CLIENTE" style="rounded=0;whiteSpace=wrap;html=1;" parent="ZHtV6s1wQadkgrF-00Dp-1" vertex="1">
          <mxGeometry x="-637" y="530" width="120" height="60" as="geometry" />
        </mxCell>
        <mxCell id="ZHtV6s1wQadkgrF-00Dp-30" value="id_cliente &lt;b&gt;PK&lt;/b&gt;" style="ellipse;whiteSpace=wrap;html=1;" parent="ZHtV6s1wQadkgrF-00Dp-1" vertex="1">
          <mxGeometry x="-752" y="570" width="115" height="30" as="geometry" />
        </mxCell>
        <mxCell id="ZHtV6s1wQadkgrF-00Dp-31" value="nombre" style="ellipse;whiteSpace=wrap;html=1;" parent="ZHtV6s1wQadkgrF-00Dp-1" vertex="1">
          <mxGeometry x="-757" y="520" width="60" height="20" as="geometry" />
        </mxCell>
        <mxCell id="ZHtV6s1wQadkgrF-00Dp-32" value="direccion" style="ellipse;whiteSpace=wrap;html=1;" parent="ZHtV6s1wQadkgrF-00Dp-1" vertex="1">
          <mxGeometry x="-697" y="520" width="60" height="20" as="geometry" />
        </mxCell>
        <mxCell id="ZHtV6s1wQadkgrF-00Dp-33" value="id_concesionario &lt;b&gt;FK&lt;/b&gt;" style="ellipse;whiteSpace=wrap;html=1;" parent="ZHtV6s1wQadkgrF-00Dp-1" vertex="1">
          <mxGeometry x="-759.5" y="540" width="120" height="30" as="geometry" />
        </mxCell>
        <mxCell id="ZHtV6s1wQadkgrF-00Dp-34" value="COMPRA" style="rounded=0;whiteSpace=wrap;html=1;" parent="ZHtV6s1wQadkgrF-00Dp-1" vertex="1">
          <mxGeometry x="-636.9999999999999" y="740" width="120" height="60" as="geometry" />
        </mxCell>
        <mxCell id="ZHtV6s1wQadkgrF-00Dp-35" value="id_compra &lt;b&gt;PK&lt;/b&gt;" style="ellipse;whiteSpace=wrap;html=1;" parent="ZHtV6s1wQadkgrF-00Dp-1" vertex="1">
          <mxGeometry x="-786.9999999999999" y="780" width="120" height="30" as="geometry" />
        </mxCell>
        <mxCell id="ZHtV6s1wQadkgrF-00Dp-36" value="fecha" style="ellipse;whiteSpace=wrap;html=1;" parent="ZHtV6s1wQadkgrF-00Dp-1" vertex="1">
          <mxGeometry x="-801.9999999999998" y="735" width="60" height="20" as="geometry" />
        </mxCell>
        <mxCell id="ZHtV6s1wQadkgrF-00Dp-37" value="id_cliente &lt;b&gt;FK&lt;/b&gt;" style="ellipse;whiteSpace=wrap;html=1;" parent="ZHtV6s1wQadkgrF-00Dp-1" vertex="1">
          <mxGeometry x="-727" y="755" width="90" height="25" as="geometry" />
        </mxCell>
        <mxCell id="ZHtV6s1wQadkgrF-00Dp-38" value="id_empleado&amp;nbsp;&lt;b&gt;FK&lt;/b&gt;" style="ellipse;whiteSpace=wrap;html=1;" parent="ZHtV6s1wQadkgrF-00Dp-1" vertex="1">
          <mxGeometry x="-827" y="755" width="100" height="25" as="geometry" />
        </mxCell>
        <mxCell id="ZHtV6s1wQadkgrF-00Dp-39" value="precio_total" style="ellipse;whiteSpace=wrap;html=1;" parent="ZHtV6s1wQadkgrF-00Dp-1" vertex="1">
          <mxGeometry x="-741.9999999999999" y="735" width="90" height="20" as="geometry" />
        </mxCell>
        <mxCell id="ZHtV6s1wQadkgrF-00Dp-40" value="DETALLE_VENTA" style="rounded=0;whiteSpace=wrap;html=1;" parent="ZHtV6s1wQadkgrF-00Dp-1" vertex="1">
          <mxGeometry x="-497.36" y="970" width="120" height="60" as="geometry" />
        </mxCell>
        <mxCell id="ZHtV6s1wQadkgrF-00Dp-41" value="id_detalleventa &lt;b&gt;PK&lt;/b&gt;" style="ellipse;whiteSpace=wrap;html=1;" parent="ZHtV6s1wQadkgrF-00Dp-1" vertex="1">
          <mxGeometry x="-497.36" y="1030" width="120" height="30" as="geometry" />
        </mxCell>
        <mxCell id="ZHtV6s1wQadkgrF-00Dp-42" value="id_compra &lt;b&gt;FK&lt;/b&gt;" style="ellipse;whiteSpace=wrap;html=1;" parent="ZHtV6s1wQadkgrF-00Dp-1" vertex="1">
          <mxGeometry x="-537.36" y="1060" width="100" height="25" as="geometry" />
        </mxCell>
        <mxCell id="ZHtV6s1wQadkgrF-00Dp-43" value="id_producto&amp;nbsp;&lt;b&gt;FK&lt;/b&gt;" style="ellipse;whiteSpace=wrap;html=1;" parent="ZHtV6s1wQadkgrF-00Dp-1" vertex="1">
          <mxGeometry x="-437.36" y="1060" width="100" height="25" as="geometry" />
        </mxCell>
        <mxCell id="ZHtV6s1wQadkgrF-00Dp-44" value="cantidad" style="ellipse;whiteSpace=wrap;html=1;" parent="ZHtV6s1wQadkgrF-00Dp-1" vertex="1">
          <mxGeometry x="-437.36" y="1085" width="100" height="25" as="geometry" />
        </mxCell>
        <mxCell id="ZHtV6s1wQadkgrF-00Dp-45" value="precio_unitario" style="ellipse;whiteSpace=wrap;html=1;" parent="ZHtV6s1wQadkgrF-00Dp-1" vertex="1">
          <mxGeometry x="-492" y="1110" width="100" height="25" as="geometry" />
        </mxCell>
        <mxCell id="ZHtV6s1wQadkgrF-00Dp-46" value="precio_total" style="ellipse;whiteSpace=wrap;html=1;" parent="ZHtV6s1wQadkgrF-00Dp-1" vertex="1">
          <mxGeometry x="-537.36" y="1085" width="100" height="25" as="geometry" />
        </mxCell>
        <mxCell id="GBxbt1OCnVhDVnUVbiXL-0" value="" style="endArrow=none;html=1;rounded=0;exitX=1;exitY=0.5;exitDx=0;exitDy=0;entryX=0;entryY=0.5;entryDx=0;entryDy=0;" edge="1" parent="ZHtV6s1wQadkgrF-00Dp-1" source="ZHtV6s1wQadkgrF-00Dp-2" target="ZHtV6s1wQadkgrF-00Dp-19">
          <mxGeometry width="50" height="50" relative="1" as="geometry">
            <mxPoint x="-469.5" y="340" as="sourcePoint" />
            <mxPoint x="-419.5" y="290" as="targetPoint" />
          </mxGeometry>
        </mxCell>
        <mxCell id="GBxbt1OCnVhDVnUVbiXL-1" value="" style="endArrow=none;html=1;rounded=0;exitX=1;exitY=0.5;exitDx=0;exitDy=0;entryX=0;entryY=0.5;entryDx=0;entryDy=0;" edge="1" parent="ZHtV6s1wQadkgrF-00Dp-1" source="ZHtV6s1wQadkgrF-00Dp-19" target="ZHtV6s1wQadkgrF-00Dp-6">
          <mxGeometry width="50" height="50" relative="1" as="geometry">
            <mxPoint x="-177.36" y="360" as="sourcePoint" />
            <mxPoint x="-127.36000000000001" y="310" as="targetPoint" />
          </mxGeometry>
        </mxCell>
        <mxCell id="GBxbt1OCnVhDVnUVbiXL-2" value="" style="endArrow=none;html=1;rounded=0;entryX=1;entryY=0.5;entryDx=0;entryDy=0;exitX=1;exitY=0.25;exitDx=0;exitDy=0;" edge="1" parent="ZHtV6s1wQadkgrF-00Dp-1" source="ZHtV6s1wQadkgrF-00Dp-19" target="ZHtV6s1wQadkgrF-00Dp-12">
          <mxGeometry width="50" height="50" relative="1" as="geometry">
            <mxPoint x="-467.36" y="400" as="sourcePoint" />
            <mxPoint x="-417.36" y="350" as="targetPoint" />
            <Array as="points">
              <mxPoint x="-197.36" y="335" />
              <mxPoint x="-197.36" y="110" />
            </Array>
          </mxGeometry>
        </mxCell>
        <mxCell id="GBxbt1OCnVhDVnUVbiXL-3" value="" style="endArrow=none;html=1;rounded=0;entryX=0.5;entryY=1;entryDx=0;entryDy=0;exitX=0;exitY=0.5;exitDx=0;exitDy=0;" edge="1" parent="ZHtV6s1wQadkgrF-00Dp-1" source="ZHtV6s1wQadkgrF-00Dp-40" target="ZHtV6s1wQadkgrF-00Dp-34">
          <mxGeometry width="50" height="50" relative="1" as="geometry">
            <mxPoint x="-347.36" y="870" as="sourcePoint" />
            <mxPoint x="-297.36" y="820" as="targetPoint" />
            <Array as="points">
              <mxPoint x="-577.36" y="1000" />
            </Array>
          </mxGeometry>
        </mxCell>
        <mxCell id="GBxbt1OCnVhDVnUVbiXL-4" value="" style="endArrow=none;html=1;rounded=0;entryX=0.5;entryY=1;entryDx=0;entryDy=0;exitX=1;exitY=0.5;exitDx=0;exitDy=0;" edge="1" parent="ZHtV6s1wQadkgrF-00Dp-1" source="ZHtV6s1wQadkgrF-00Dp-40" target="ZHtV6s1wQadkgrF-00Dp-24">
          <mxGeometry width="50" height="50" relative="1" as="geometry">
            <mxPoint x="-327.36" y="860" as="sourcePoint" />
            <mxPoint x="-277.36" y="810" as="targetPoint" />
            <Array as="points">
              <mxPoint x="-297.36" y="1000" />
            </Array>
          </mxGeometry>
        </mxCell>
        <mxCell id="GBxbt1OCnVhDVnUVbiXL-5" value="" style="endArrow=none;html=1;rounded=0;entryX=0.5;entryY=1;entryDx=0;entryDy=0;exitX=0.5;exitY=0;exitDx=0;exitDy=0;" edge="1" parent="ZHtV6s1wQadkgrF-00Dp-1" source="ZHtV6s1wQadkgrF-00Dp-34" target="ZHtV6s1wQadkgrF-00Dp-29">
          <mxGeometry width="50" height="50" relative="1" as="geometry">
            <mxPoint x="-587.36" y="700" as="sourcePoint" />
            <mxPoint x="-537.36" y="650" as="targetPoint" />
          </mxGeometry>
        </mxCell>
        <mxCell id="GBxbt1OCnVhDVnUVbiXL-6" value="" style="endArrow=none;html=1;rounded=0;exitX=0.5;exitY=0;exitDx=0;exitDy=0;" edge="1" parent="ZHtV6s1wQadkgrF-00Dp-1" source="ZHtV6s1wQadkgrF-00Dp-29">
          <mxGeometry width="50" height="50" relative="1" as="geometry">
            <mxPoint x="-327.36" y="430" as="sourcePoint" />
            <mxPoint x="-577.36" y="380" as="targetPoint" />
          </mxGeometry>
        </mxCell>
      </root>
    </mxGraphModel>
  </diagram>
</mxfile>
